<svg id="图层_1" data-name="图层 1" xmlns="http://www.w3.org/2000/svg" viewBox="0 0 100.59 106.22"><defs><style>.cls-1{fill:#fff;}</style></defs><title>Loading</title><path class="cls-1" d="M53,0A13.82,13.82,0,1,0,66.85,13.81,13.84,13.84,0,0,0,53,0Z"/><path class="cls-1" d="M23.62,13.35A12.62,12.62,0,1,0,36.25,26,12.62,12.62,0,0,0,23.62,13.35Z"/><path class="cls-1" d="M22.26,56A11.13,11.13,0,1,0,11.13,67.14,11.14,11.14,0,0,0,22.26,56Z"/><path class="cls-1" d="M23.62,76.53A9.44,9.44,0,1,0,33.06,86,9.46,9.46,0,0,0,23.62,76.53Z"/><path class="cls-1" d="M53,89.74A8.24,8.24,0,1,0,61.28,98,8.26,8.26,0,0,0,53,89.74Z"/><path class="cls-1" d="M82.89,79a6.67,6.67,0,1,0,6.67,6.67A6.69,6.69,0,0,0,82.89,79Z"/><path class="cls-1" d="M95.12,50.57A5.47,5.47,0,1,0,100.59,56,5.48,5.48,0,0,0,95.12,50.57Z"/><path class="cls-1" d="M82.89,30.62a4.24,4.24,0,1,0-4.24-4.24A4.24,4.24,0,0,0,82.89,30.62Z"/></svg>