<svg id="图层_1" data-name="图层 1" xmlns="http://www.w3.org/2000/svg" viewBox="0 0 289.56 375.36">
  <defs>
    <style>
      .cls-1 {
        fill: #fff;
      }
    </style>
  </defs>
  <title>未标题-1</title>
  <path class="cls-1" d="M144.77,0C64.94,0,0,64.94,0,144.76a143.58,143.58,0,0,0,25.58,82.17,45.53,45.53,0,0,0,2.67,4.18L133.93,370.4a14.46,14.46,0,0,0,10.85,5c4.08,0,8-1.77,11.31-5.54L261.28,231.09a33,33,0,0,0,2.41-3.77,144,144,0,0,0,25.87-82.54C289.55,64.94,224.61,0,144.77,0Zm0,196.54a51.72,51.72,0,1,1,51.72-51.72,51.77,51.77,0,0,1-51.72,51.72Zm0,0"/>
</svg>
