<svg id="图层_1" data-name="图层 1" xmlns="http://www.w3.org/2000/svg" viewBox="0 0 288.46 355.96">
  <defs>
    <style>
      .cls-1 {
        fill: #fff;
      }
    </style>
  </defs>
  <title>未标题-1</title>
  <path class="cls-1" d="M182.5,248.11c.65-.41,7.81-4.89,9.9-6.15a96.94,96.94,0,0,1,10.26-5.53c22.44-10.21,42.24-3,68.42,27.6,16.2,18.94,21,35.74,14.73,50.7-4.65,11.18-13.63,18.9-29.6,28.43-1,.61-10.23,6-12.59,7.43C206.43,373.53,121.21,321,59.91,231.26c-61.45-90-77.35-185.91-39.68-209.19l5-3.15,5.4-3.51C49.66,3.08,61.85-1.84,76.31.61S103,13.77,113.42,33.23c21.91,41.16,17.08,60.68-11.11,78.43-2,1.3-9.22,5.65-9.89,6.07-6.91,4.28,4.79,32.91,32,72.72,27.53,40.27,50.54,62.29,58.08,57.66Zm0,0"/>
</svg>
