<svg id="图层_1" data-name="图层 1" xmlns="http://www.w3.org/2000/svg" viewBox="0 0 207.24 85.2">
  <defs>
    <style>
      .cls-1 {
        fill: #fff;
      }
    </style>
  </defs>
  <title>衡道logo</title>
  <g>
    <g>
      <path class="cls-1" d="M127.15,41.18h-3.5V30.82h-9.43V41.18h-3.5V18.37h3.5v9.41h9.43V18.37h3.5Z"/>
      <path class="cls-1" d="M136.1,18.4h3.5V41.18h-3.5Z"/>
      <path class="cls-1" d="M159.92,21.94a8.69,8.69,0,0,0-4.11-1c-2.74,0-3.89,1.58-3.89,3,0,1.93,1.3,2.89,4.23,4.14,3.71,1.61,5.5,3.6,5.5,6.73,0,3.81-2.88,6.67-8.07,6.67A11.34,11.34,0,0,1,148,40.14l.79-2.89a10.14,10.14,0,0,0,5,1.34c2.75,0,4.29-1.4,4.29-3.45s-1.18-3.13-3.93-4.26c-3.44-1.37-5.77-3.43-5.77-6.53,0-3.6,2.93-6.31,7.53-6.31a11,11,0,0,1,4.86,1Z"/>
      <path class="cls-1" d="M183.23,21.35H177V41.18h-3.5V21.35h-6.23v-3h16Z"/>
      <path class="cls-1" d="M207.24,29.57c0,7.92-4.32,11.94-9.94,11.94-5.89,0-9.67-4.7-9.67-11.58,0-7.18,4.05-11.89,10-11.89C203.73,18,207.24,23,207.24,29.57Zm-15.92.27c0,4.61,2.11,8.84,6.1,8.84s6.13-4.14,6.13-9c0-4.35-1.93-8.82-6.07-8.82S191.32,25.37,191.32,29.84Z"/>
    </g>
    <g>
      <g>
        <polygon class="cls-1" points="27.27 34.51 27.27 27.32 21.2 21.25 21.23 29.22 27.27 34.51"/>
        <polygon class="cls-1" points="21.24 32.97 21.22 63.99 27.3 57.91 27.27 38.24 21.24 32.97"/>
      </g>
      <g>
        <g>
          <polygon class="cls-1" points="57.92 34.51 57.92 27.32 64 21.25 63.96 29.22 57.92 34.51"/>
          <polygon class="cls-1" points="63.96 32.97 63.98 63.99 57.9 57.91 57.92 38.24 63.96 32.97"/>
        </g>
        <g>
          <polygon class="cls-1" points="12.26 21.39 12.26 12.31 0 0 0 10.59 12.26 21.39"/>
          <polygon class="cls-1" points="0 14.42 0 85.2 12.26 72.98 12.26 25.16 0 14.42"/>
        </g>
        <g>
          <polygon class="cls-1" points="72.94 21.39 72.94 12.31 85.2 0 85.2 10.59 72.94 21.39"/>
          <polygon class="cls-1" points="85.2 14.42 85.2 85.2 72.94 72.98 72.94 25.16 85.2 14.42"/>
        </g>
      </g>
    </g>
    <path class="cls-1" d="M111.23,61a4.53,4.53,0,0,0-.51-.87,16.09,16.09,0,0,0,3.41-5.51L115,55c-.39.91-.8,1.79-1.23,2.61v9.42h-1v-8A12.74,12.74,0,0,1,111.23,61Zm.29-5.8-.36-.58a.7.7,0,0,1-.15-.29,13,13,0,0,0,3.19-4.56l.87.43A16.46,16.46,0,0,1,111.52,55.23Zm11,10.81a20,20,0,0,0-2-1.31,9.1,9.1,0,0,1-1.23-.8q-.73,1.46-4,2.69a1.41,1.41,0,0,0-.36-.51,2,2,0,0,0-.22-.29c2.56-.77,3.91-1.84,4.06-3.19h-3.55v-.8h3.69a6.86,6.86,0,0,0,.07-1h1a6.86,6.86,0,0,0-.07,1h3.91v.8h-4.06a1.84,1.84,0,0,1-.07.43c0-.09,0,0-.07.15.72.39,1.78,1,3.18,1.81l.44.22Zm-7-11.39-.36-.29a1.81,1.81,0,0,0-.37-.29,13.13,13.13,0,0,0,3.48-4.42l.87.29c0,.1-.12.24-.22.44a9.28,9.28,0,0,1-.57.94h3.69v.87l-1.3,1.67h2.1v6.3H116V54.29A3.42,3.42,0,0,0,115.58,54.65Zm5.51-2.53h-3.26a11.72,11.72,0,0,1-1.45,1.74h3.4Zm-4.21,2.46v2h2.18v-2Zm0,2.83v2h2.18v-2ZM122,54.58h-2.1v2H122Zm-2.1,2.83v2H122v-2Zm3.84-1.86h4.71v.94h-1.67v8.39c0,1.2-.58,1.84-1.88,1.88H123.7a2.47,2.47,0,0,0-.07-.43,2.14,2.14,0,0,0-.15-.51h1.23c.82.05,1.21-.29,1.16-1V56.49h-2.1Zm.44-4.59H128v.87h-3.77Z"/>
    <path class="cls-1" d="M143.5,65.72c4,0,7.27,0,9.76-.07a.69.69,0,0,1-.14.37,4.68,4.68,0,0,1-.15.67h-6c-1.52,0-2.72,0-3.6-.08-2.3.1-3.94-.62-4.92-2.14a8,8,0,0,0-2.13,2.36l-.66-.81c.2-.2.47-.49.81-.89L138,63.58V57.13h-2.13v-1H139v7.55C139.83,65.06,141.34,65.72,143.5,65.72Zm-4.85-12c-.39-.59-1-1.41-1.76-2.45-.19-.24-.34-.44-.44-.59l.74-.52c.29.35.68.84,1.17,1.48s.93,1.14,1.17,1.49Zm3.09,1h3.08L146,52.84h-5.14V52h3.89q-.88-1.11-1.62-1.92l.74-.52a4.74,4.74,0,0,0,.58.67,8.94,8.94,0,0,1,1.11,1.26l-.67.51h3.16l1.62-2.44.88.52L149,52h4.11v.82H147l-1.25,1.92h6v9.11H141.74Zm.95.82V57.5h8.15V55.58Zm0,2.74v1.92h8.15V58.32Zm0,2.74V63h8.15V61.06Z"/>
    <path class="cls-1" d="M171.58,49.78l1-.22a23.26,23.26,0,0,1,.73,2.42h6.39v.81H166.3v5.29a17.23,17.23,0,0,1-.59,5.14A10.88,10.88,0,0,1,163.58,67c-.29-.2-.59-.42-.88-.66a8.89,8.89,0,0,0,2.57-6.68,27.6,27.6,0,0,0-2.64,1.61l-.44-.95.51-.29c1.22-.64,2.08-1.11,2.57-1.4V52h7c-.1-.34-.27-.85-.52-1.54C171.7,50.15,171.63,49.93,171.58,49.78Zm-9.53,4.54.71-.49c.93,1.22,1.73,2.32,2.4,3.31l-.75.58c-.36-.56-.86-1.32-1.52-2.26Q162.31,54.71,162.05,54.32Zm14.53,10a46.92,46.92,0,0,0-3.31-3.53,8.82,8.82,0,0,1-3.38,3.89l-.22-.22a2.49,2.49,0,0,0-.51-.51c2.25-1.47,3.48-3.11,3.67-4.92h-4.26v7.86h-.95V58.15h5.29c0-.49.07-1.3.07-2.42H167v-.88h12.48v.88h-5.58c0,1.12,0,1.93-.07,2.42h5.07v6.31a2,2,0,0,1-2.21,2.21h-2.57A2.51,2.51,0,0,0,174,66a1.24,1.24,0,0,1-.08-.37c.69,0,1.52.07,2.5.07s1.59-.36,1.54-1.25V59h-4.18a2,2,0,0,1-.08.44,1,1,0,0,1-.07.44c1,.93,2.23,2.16,3.74,3.67Z"/>
    <path class="cls-1" d="M189.91,57.47h2.28V52.21h-2.43v-.89h5.8v.89h-2.42v5.26h2.28v.81h-2.28v5.48a24.25,24.25,0,0,0,2.42-.59,4.66,4.66,0,0,0,.08,1c-.88.15-2.13.42-3.75.82-.88.15-1.57.27-2,.37l-.22-.89a17,17,0,0,0,2.57-.52v-5.7h-2.28Zm6.39,4.29h4.62V59.24h-4.26V50.65h9.4v8.59h-4.18v2.52h4.55v.89h-4.55v2.89h5.36v.89h-12v-.89h5.72V62.65H196.3Zm1.32-10.22v3h3.3v-3Zm0,3.85v3h3.3v-3Zm7.49-3.85h-3.23v3h3.23Zm-3.23,3.85v3h3.23v-3Z"/>
  </g>
</svg>
